<svg xmlns="http://www.w3.org/2000/svg" xmlns:xlink="http://www.w3.org/1999/xlink" viewBox="0,0,256,256" width="48px" height="48px"><g fill="#ff8a00" fill-rule="nonzero" stroke="none" stroke-width="1" stroke-linecap="butt" stroke-linejoin="miter" stroke-miterlimit="10" stroke-dasharray="" stroke-dashoffset="0" font-family="none" font-weight="none" font-size="none" text-anchor="none" style="mix-blend-mode: normal"><g transform="scale(5.33333,5.33333)"><path d="M39,15c0,-2.2 -1.8,-4 -4,-4h-6c-0.7,0 -1.1,-0.8 -0.7,-1.4c0.6,-1 0.9,-2.2 0.6,-3.5c-0.4,-2 -1.9,-3.6 -3.8,-4c-3.3,-0.7 -6.1,1.8 -6.1,4.9c0,1 0.3,1.8 0.7,2.6c0.4,0.6 0,1.4 -0.8,1.4h-6c-2.2,0 -4,1.8 -4,4v7c0,0.7 0.8,1.1 1.4,0.7c1,-0.6 2.2,-0.9 3.5,-0.6c2,0.4 3.6,1.9 4,3.8c0.7,3.2 -1.8,6.1 -4.9,6.1c-1,0 -1.8,-0.3 -2.6,-0.7c-0.5,-0.4 -1.3,0 -1.3,0.7v6c0,2.2 1.8,4 4,4h22c2.2,0 4,-1.8 4,-4z"></path></g></g></svg>