<!DOCTYPE svg PUBLIC "-//W3C//DTD SVG 1.1//EN" "http://www.w3.org/Graphics/SVG/1.1/DTD/svg11.dtd">
<!-- Uploaded to: SVG Repo, www.svgrepo.com, Transformed by: SVG Repo Mixer Tools -->
<svg fill="#000000" version="1.1" id="Layer_1" xmlns:x="&amp;ns_extend;" xmlns:i="&amp;ns_ai;" xmlns:graph="&amp;ns_graphs;" xmlns="http://www.w3.org/2000/svg" xmlns:xlink="http://www.w3.org/1999/xlink" width="800px" height="800px" viewBox="0 0 24 24" enable-background="new 0 0 24 24" xml:space="preserve">
<g id="SVGRepo_bgCarrier" stroke-width="0"/>
<g id="SVGRepo_tracerCarrier" stroke-linecap="round" stroke-linejoin="round"/>
<g id="SVGRepo_iconCarrier"> <metadata> <sfw> <slices> </slices> <slicesourcebounds width="505" height="984" bottomleftorigin="true" x="0" y="-984"> </slicesourcebounds> </sfw> </metadata> <g> <g> <g> <path d="M20,20h-4c-0.6,0-1-0.4-1-1s0.4-1,1-1h4c1.1,0,2-0.9,2-2V4c0-1.1-0.9-2-2-2H4C2.9,2,2,2.9,2,4v12c0,1.1,0.9,2,2,2h4 c0.6,0,1,0.4,1,1s-0.4,1-1,1H4c-2.2,0-4-1.8-4-4V4c0-2.2,1.8-4,4-4h16c2.2,0,4,1.8,4,4v12C24,18.2,22.2,20,20,20z"/> </g> </g> <g> <g> <path d="M12,24c-0.3,0-0.5-0.1-0.7-0.3l-4-4c-0.4-0.4-0.4-1,0-1.4s1-0.4,1.4,0l3.3,3.3l3.3-3.3c0.4-0.4,1-0.4,1.4,0s0.4,1,0,1.4 l-4,4C12.5,23.9,12.3,24,12,24z"/> </g> </g> <g> <g> <path d="M18,7H6C5.4,7,5,6.6,5,6s0.4-1,1-1h12c0.6,0,1,0.4,1,1S18.6,7,18,7z"/> </g> </g> <g> <g> <path d="M13,11H6c-0.6,0-1-0.4-1-1s0.4-1,1-1h7c0.6,0,1,0.4,1,1S13.6,11,13,11z"/> </g> </g> <g> <g> <path d="M16,15H6c-0.6,0-1-0.4-1-1s0.4-1,1-1h10c0.6,0,1,0.4,1,1S16.6,15,16,15z"/> </g> </g> </g> </g>
</svg>